<svg xmlns="http://www.w3.org/2000/svg" viewBox="0 0 1600 900" width="1600" height="900">
  <defs>
    <linearGradient id="bgGrad" x1="0" y1="0" x2="1" y2="1">
      <stop offset="0" stop-color="#0f1329"/>
      <stop offset="1" stop-color="#151a33"/>
    </linearGradient>
    <radialGradient id="glow1" cx="0.15" cy="0.2" r="0.4">
      <stop offset="0" stop-color="#6ea8fe" stop-opacity="0.6"/>
      <stop offset="1" stop-color="#6ea8fe" stop-opacity="0"/>
    </radialGradient>
    <radialGradient id="glow2" cx="0.85" cy="0.15" r="0.45">
      <stop offset="0" stop-color="#ffd666" stop-opacity="0.45"/>
      <stop offset="1" stop-color="#ffd666" stop-opacity="0"/>
    </radialGradient>
  </defs>

  <rect width="1600" height="900" fill="url(#bgGrad)"/>
  <rect width="1600" height="900" fill="url(#glow1)"/>
  <rect width="1600" height="900" fill="url(#glow2)"/>

  <g fill="rgba(255,255,255,0.65)">
    <circle cx="150" cy="180" r="2"/>
    <circle cx="310" cy="120" r="2"/>
    <circle cx="540" cy="90" r="2"/>
    <circle cx="860" cy="140" r="2"/>
    <circle cx="1180" cy="110" r="2"/>
    <circle cx="1420" cy="170" r="2"/>
    <circle cx="210" cy="320" r="2"/>
    <circle cx="980" cy="300" r="2"/>
    <circle cx="1290" cy="360" r="2"/>
    <circle cx="300" cy="560" r="2"/>
    <circle cx="700" cy="620" r="2"/>
    <circle cx="1000" cy="580" r="2"/>
    <circle cx="1350" cy="600" r="2"/>
  </g>

  <g fill="none" stroke="rgba(255,255,255,0.22)" stroke-width="2">
    <path d="M100 720 C 260 640, 420 820, 580 740 S 900 620, 1120 740 1460 720, 1500 760"/>
  </g>

  <g font-family="'Segoe UI', Roboto, Arial, sans-serif" text-anchor="middle">
    <text x="800" y="440" font-size="56" fill="#ffffff" font-weight="700" style="letter-spacing:.5px">С днем рождения, дорогая Даша!</text>
    <text x="800" y="495" font-size="26" fill="rgba(255,255,255,0.9)">Мы с друзьями собрали для тебя пачку поздравлений</text>
  </g>
</svg>
